<svg width="2940" height="276" viewBox="0 0 2940 276" fill="none" xmlns="http://www.w3.org/2000/svg">
<rect width="2940" height="276" fill=""/>
<g filter="url(#filter0_d_0_1)">
<path d="M24.5013 61.2885L0 46V275.687H24.5013H147.008H294.016H441.024H588.032H735.04H882.048H1029.06H1176.06H1323.07H1445.58L1494.42 276H1616.93H1763.94H1910.94H2057.95H2204.96H2351.97H2498.98H2645.98H2792.99H2915.5H2940V46.3129L2915.5 61.6015C2891 77.1771 2841.99 107.324 2792.99 115.219C2743.99 123.115 2694.99 107.324 2645.98 107.539C2596.98 107.324 2547.98 123.115 2498.98 122.899C2449.97 123.115 2400.97 107.324 2351.97 119.023C2302.97 130.292 2253.96 169.052 2204.96 184.125C2155.96 199.198 2106.95 192.021 2057.95 187.929C2008.95 184.125 1959.95 184.125 1910.94 168.837C1861.94 153.261 1812.94 123.115 1763.94 115.219C1714.93 107.324 1665.93 123.115 1616.93 126.703C1567.92 130.292 1518.92 123.115 1494.42 119.023L1481.44 116.827C1473.91 115.555 1466.24 115.503 1458.7 116.673L1445.58 118.71C1421.08 122.802 1372.08 129.979 1323.07 126.39C1274.07 122.802 1225.07 107.011 1176.06 114.906C1127.06 122.802 1078.06 152.948 1029.06 168.524C980.054 183.812 931.051 183.812 882.048 187.616C833.046 191.708 784.043 198.885 735.04 183.812C686.038 168.739 637.035 129.979 588.032 118.71C539.03 107.011 490.027 122.802 441.024 122.586C392.021 122.802 343.019 107.011 294.016 107.226C245.013 107.011 196.011 122.802 147.008 114.906C98.0054 107.011 49.0027 76.8642 24.5013 61.2885Z" fill="#7A0BC0"/>
</g>
<defs>
<filter id="filter0_d_0_1" x="-20" y="14" width="2980" height="270" filterUnits="userSpaceOnUse" color-interpolation-filters="sRGB">
<feFlood flood-opacity="0" result="BackgroundImageFix"/>
<feColorMatrix in="SourceAlpha" type="matrix" values="0 0 0 0 0 0 0 0 0 0 0 0 0 0 0 0 0 0 127 0" result="hardAlpha"/>
<feOffset dy="-12"/>
<feGaussianBlur stdDeviation="10"/>
<feComposite in2="hardAlpha" operator="out"/>
<feColorMatrix type="matrix" values="0 0 0 0 0 0 0 0 0 0 0 0 0 0 0 0 0 0 0.25 0"/>
<feBlend mode="normal" in2="BackgroundImageFix" result="effect1_dropShadow_0_1"/>
<feBlend mode="normal" in="SourceGraphic" in2="effect1_dropShadow_0_1" result="shape"/>
</filter>
</defs>
</svg>
