<svg width="345" height="345" viewBox="0 0 345 345" fill="none" xmlns="http://www.w3.org/2000/svg">
<g filter="url(#filter0_d_955_2603)">
<path fill-rule="evenodd" clip-rule="evenodd" d="M344.675 175.066L311.798 174.558C311.81 173.823 311.815 173.086 311.815 172.348C311.815 171.61 311.81 170.873 311.798 170.138L344.675 169.63C344.689 170.534 344.696 171.44 344.696 172.348C344.696 173.256 344.689 174.162 344.675 175.066ZM344.508 164.224L311.663 165.748C311.594 164.278 311.504 162.815 311.39 161.359L344.172 158.812C344.312 160.609 344.424 162.413 344.508 164.224ZM343.669 153.427L310.983 156.996C310.824 155.538 310.642 154.088 310.439 152.645L342.997 148.052C343.248 149.835 343.472 151.627 343.669 153.427ZM342.155 142.701L309.758 148.318C309.509 146.878 309.237 145.446 308.944 144.023L341.148 137.388C341.511 139.149 341.847 140.92 342.155 142.701ZM339.97 132.097L307.992 139.747C307.652 138.327 307.291 136.914 306.908 135.511L338.627 126.852C339.102 128.589 339.549 130.338 339.97 132.097ZM337.12 121.655L305.69 131.313C305.261 129.916 304.81 128.528 304.338 127.15L335.446 116.501C336.03 118.207 336.588 119.925 337.12 121.655ZM333.612 111.408L302.857 123.037C302.341 121.671 301.803 120.315 301.245 118.97L331.618 106.375C332.308 108.04 332.973 109.718 333.612 111.408ZM329.464 101.405L299.505 114.954C298.903 113.624 298.281 112.304 297.639 110.996L327.156 96.5091C327.95 98.127 328.72 99.7591 329.464 101.405ZM324.694 91.6859L295.648 107.096C294.964 105.806 294.259 104.527 293.535 103.26L322.081 86.9425C322.976 88.5084 323.847 90.0897 324.694 91.6859ZM319.321 82.2858L291.302 99.492C290.537 98.2462 289.753 97.0131 288.95 95.7932L316.415 77.7159C317.407 79.2229 318.375 80.7464 319.321 82.2858ZM313.367 73.24L286.482 92.1693C285.64 90.9739 284.78 89.7922 283.902 88.6245L310.181 68.8628C311.266 70.3044 312.328 71.7637 313.367 73.24ZM306.859 64.5859L281.211 85.16C280.296 84.019 279.363 82.8927 278.413 81.7813L303.405 60.4156C304.578 61.7872 305.729 63.1775 306.859 64.5859ZM299.823 56.3556L275.51 78.4914C274.525 77.4096 273.524 76.3433 272.506 75.293L296.116 52.4089C297.372 53.7049 298.608 55.0207 299.823 56.3556ZM292.287 48.5801L269.403 72.1901C268.352 71.1721 267.286 70.1704 266.204 69.1855L288.34 44.8724C289.675 46.0878 290.991 47.3239 292.287 48.5801ZM284.28 41.2903L262.914 66.2829C261.803 65.3328 260.677 64.3999 259.536 63.4846L280.11 37.8366C281.518 38.9664 282.909 40.1178 284.28 41.2903ZM275.833 34.5144L256.071 60.7935C254.904 59.9154 253.722 59.0553 252.526 58.2136L271.456 31.3288C272.932 32.3682 274.391 33.4303 275.833 34.5144ZM266.98 28.2811L248.903 55.7462C247.683 54.9432 246.45 54.159 245.204 53.394L262.41 25.3749C263.949 26.3203 265.473 27.2892 266.98 28.2811ZM257.753 22.6151L241.436 51.1609C240.169 50.4368 238.89 49.7322 237.599 49.0473L253.01 20.0019C254.606 20.8488 256.187 21.72 257.753 22.6151ZM248.187 17.5395L233.699 47.0563C232.391 46.4143 231.072 45.7923 229.742 45.1907L243.291 15.2316C244.937 15.9759 246.569 16.7454 248.187 17.5395ZM238.321 13.0778L225.726 43.4503C224.38 42.8925 223.025 42.3552 221.659 41.8389L233.287 11.0833C234.978 11.7225 236.656 12.3875 238.321 13.0778ZM228.195 9.24941L217.545 40.3575C216.167 39.8858 214.78 39.4351 213.383 39.0058L223.041 7.57585C224.77 8.10738 226.489 8.66538 228.195 9.24941ZM217.844 6.06844L209.185 37.7882C207.782 37.4051 206.369 37.0434 204.948 36.7034L212.599 4.72559C214.358 5.14639 216.106 5.59416 217.844 6.06844ZM207.308 3.54783L200.673 35.7518C199.249 35.4585 197.818 35.1869 196.378 34.9373L201.995 2.54026C203.775 2.84894 205.546 3.18495 207.308 3.54783ZM196.644 1.69919C194.861 1.44762 193.069 1.22333 191.269 1.02676L187.7 33.7128C189.157 33.872 190.608 34.0535 192.05 34.2571L196.644 1.69919ZM185.883 0.523699L183.337 33.3053C181.881 33.1922 180.418 33.1013 178.948 33.0331L180.472 0.188079C182.283 0.272131 184.087 0.384144 185.883 0.523699ZM175.066 0.0209999L174.558 32.8974C173.823 32.8861 173.086 32.8804 172.348 32.8804C171.61 32.8804 170.873 32.8861 170.138 32.8974L169.63 0.0210005C170.534 0.00701725 171.44 0 172.348 0C173.256 0 174.162 0.00701705 175.066 0.0209999ZM164.224 0.188081L165.748 33.0331C164.278 33.1013 162.815 33.1922 161.359 33.3053L158.812 0.523703C160.609 0.384148 162.413 0.272133 164.224 0.188081ZM153.427 1.02677L156.996 33.7128C155.538 33.872 154.088 34.0535 152.645 34.2571L148.052 1.69919C149.835 1.44762 151.626 1.22334 153.427 1.02677ZM142.701 2.54027L148.318 34.9373C146.878 35.1869 145.446 35.4585 144.023 35.7518L137.388 3.54784C139.149 3.18496 140.92 2.84895 142.701 2.54027ZM132.097 4.7256L139.747 36.7034C138.327 37.0434 136.914 37.4051 135.511 37.7882L126.852 6.06845C128.589 5.59418 130.338 5.14641 132.097 4.7256ZM121.655 7.57586L131.313 39.0058C129.916 39.4351 128.528 39.8858 127.15 40.3575L116.501 9.24942C118.207 8.6654 119.925 8.10739 121.655 7.57586ZM111.408 11.0833L123.037 41.8389C121.671 42.3552 120.315 42.8925 118.97 43.4503L106.375 13.0779C108.04 12.3875 109.718 11.7225 111.408 11.0833ZM101.405 15.2316L114.954 45.1907C113.624 45.7923 112.304 46.4143 110.996 47.0563L96.509 17.5395C98.127 16.7454 99.7591 15.976 101.405 15.2316ZM91.6859 20.0019L107.096 49.0473C105.806 49.7322 104.527 50.4368 103.26 51.1609L86.9425 22.6151C88.5084 21.72 90.0897 20.8488 91.6859 20.0019ZM82.2858 25.3749L99.492 53.394C98.2462 54.159 97.0131 54.9432 95.7932 55.7462L77.7159 28.2811C79.2229 27.2892 80.7463 26.3203 82.2858 25.3749ZM73.2399 31.3288L92.1693 58.2136C90.9739 59.0553 89.7922 59.9154 88.6245 60.7935L68.8628 34.5144C70.3044 33.4302 71.7637 32.3682 73.2399 31.3288ZM64.5859 37.8366L85.16 63.4846C84.019 64.3999 82.8927 65.3327 81.7813 66.2828L60.4156 41.2903C61.7873 40.1177 63.1775 38.9663 64.5859 37.8366ZM56.3556 44.8724L78.4914 69.1855C77.4096 70.1704 76.3433 71.1721 75.293 72.1901L52.4088 48.5801C53.7049 47.3239 55.0207 46.0878 56.3556 44.8724ZM48.5801 52.4088L72.1901 75.293C71.1721 76.3433 70.1704 77.4096 69.1855 78.4914L44.8725 56.3556C46.0878 55.0207 47.3239 53.7049 48.5801 52.4088ZM41.2903 60.4156L66.2829 81.7813C65.3328 82.8926 64.3999 84.019 63.4846 85.16L37.8366 64.5858C38.9664 63.1775 40.1178 61.7872 41.2903 60.4156ZM34.5144 68.8627L60.7935 88.6245C59.9154 89.7922 59.0553 90.9739 58.2136 92.1693L31.3288 73.2399C32.3682 71.7636 33.4303 70.3044 34.5144 68.8627ZM28.2811 77.7159L55.7462 95.7932C54.9432 97.0131 54.159 98.2462 53.394 99.492L25.3749 82.2858C26.3203 80.7464 27.2892 79.2229 28.2811 77.7159ZM22.6151 86.9426L51.1609 103.26C50.4368 104.527 49.7322 105.806 49.0473 107.096L20.0019 91.6859C20.8488 90.0897 21.72 88.5084 22.6151 86.9426ZM17.5395 96.5091L47.0563 110.996C46.4143 112.304 45.7923 113.624 45.1907 114.954L15.2316 101.405C15.9759 99.7592 16.7454 98.127 17.5395 96.5091ZM13.0778 106.375L43.4503 118.97C42.8925 120.315 42.3552 121.671 41.8389 123.037L11.0833 111.409C11.7225 109.718 12.3875 108.04 13.0778 106.375ZM9.24941 116.501L40.3575 127.15C39.8858 128.528 39.4351 129.916 39.0058 131.313L7.57585 121.655C8.10738 119.925 8.66539 118.207 9.24941 116.501ZM6.06844 126.852L37.7882 135.511C37.4051 136.914 37.0434 138.327 36.7034 139.748L4.72558 132.097C5.14639 130.338 5.59416 128.59 6.06844 126.852ZM3.54783 137.388L35.7518 144.023C35.4585 145.447 35.1869 146.878 34.9373 148.318L2.54026 142.701C2.84894 140.921 3.18495 139.149 3.54783 137.388ZM1.69919 148.052C1.44762 149.835 1.22333 151.627 1.02676 153.427L33.7128 156.996C33.872 155.538 34.0535 154.088 34.2571 152.645L1.69919 148.052ZM0.523698 158.812L33.3053 161.359C33.1922 162.815 33.1013 164.278 33.0331 165.748L0.188079 164.224C0.272131 162.413 0.384144 160.609 0.523698 158.812ZM0.0209999 169.63C0.00701705 170.534 0 171.44 0 172.348C0 173.256 0.00701725 174.162 0.0210005 175.066L32.8974 174.558C32.8861 173.823 32.8804 173.086 32.8804 172.348C32.8804 171.61 32.8861 170.873 32.8974 170.138L0.0209999 169.63ZM0.188081 180.472L33.0331 178.948C33.1013 180.418 33.1922 181.881 33.3053 183.337L0.523703 185.883C0.384148 184.087 0.272133 182.283 0.188081 180.472ZM1.02677 191.269L33.7128 187.7C33.872 189.157 34.0535 190.608 34.2571 192.05L1.69919 196.644C1.44762 194.861 1.22334 193.069 1.02677 191.269ZM2.54027 201.995L34.9373 196.378C35.1869 197.818 35.4585 199.249 35.7518 200.673L3.54784 207.308C3.18496 205.546 2.84895 203.775 2.54027 201.995ZM4.7256 212.599L36.7034 204.948C37.0434 206.369 37.4051 207.782 37.7882 209.185L6.06845 217.844C5.59418 216.106 5.14641 214.358 4.7256 212.599ZM7.57586 223.041L39.0058 213.383C39.4351 214.78 39.8858 216.167 40.3575 217.545L9.24943 228.195C8.6654 226.489 8.10739 224.77 7.57586 223.041ZM11.0833 233.287L41.8389 221.659C42.3552 223.025 42.8925 224.38 43.4503 225.726L13.0779 238.321C12.3875 236.656 11.7225 234.978 11.0833 233.287ZM15.2316 243.291L45.1907 229.742C45.7923 231.072 46.4143 232.391 47.0563 233.699L17.5395 248.187C16.7454 246.569 15.976 244.937 15.2316 243.291ZM20.0019 253.01L49.0473 237.599C49.7322 238.89 50.4368 240.169 51.1609 241.436L22.6151 257.753C21.72 256.187 20.8488 254.606 20.0019 253.01ZM25.3749 262.41L53.394 245.204C54.159 246.45 54.9432 247.683 55.7462 248.903L28.2811 266.98C27.2892 265.473 26.3203 263.949 25.3749 262.41ZM31.3288 271.456L58.2136 252.526C59.0553 253.722 59.9154 254.904 60.7935 256.071L34.5144 275.833C33.4302 274.391 32.3682 272.932 31.3288 271.456ZM37.8366 280.11L63.4846 259.536C64.3999 260.677 65.3327 261.803 66.2828 262.914L41.2903 284.28C40.1178 282.908 38.9663 281.518 37.8366 280.11ZM44.8724 288.34L69.1855 266.204C70.1704 267.286 71.1721 268.352 72.1901 269.403L48.5801 292.287C47.3239 290.991 46.0878 289.675 44.8724 288.34ZM52.4088 296.116L75.293 272.506C76.3433 273.524 77.4096 274.525 78.4914 275.51L56.3556 299.823C55.0207 298.608 53.7049 297.372 52.4088 296.116ZM60.4156 303.405L81.7813 278.413C82.8926 279.363 84.019 280.296 85.16 281.211L64.5858 306.859C63.1775 305.729 61.7872 304.578 60.4156 303.405ZM68.8627 310.181L88.6245 283.902C89.7922 284.78 90.9739 285.64 92.1693 286.482L73.2399 313.367C71.7636 312.328 70.3044 311.266 68.8627 310.181ZM77.7159 316.415L95.7932 288.95C97.0131 289.753 98.2462 290.537 99.492 291.302L82.2858 319.321C80.7464 318.375 79.2229 317.407 77.7159 316.415ZM86.9426 322.081L103.26 293.535C104.527 294.259 105.806 294.964 107.096 295.648L91.6859 324.694C90.0897 323.847 88.5084 322.976 86.9426 322.081ZM96.5091 327.156L110.996 297.639C112.304 298.281 113.624 298.903 114.954 299.505L101.405 329.464C99.7591 328.72 98.127 327.95 96.5091 327.156ZM106.375 331.618L118.97 301.245C120.315 301.803 121.671 302.341 123.037 302.857L111.409 333.612C109.718 332.973 108.04 332.308 106.375 331.618ZM116.501 335.446L127.15 304.338C128.528 304.81 129.916 305.261 131.313 305.69L121.655 337.12C119.925 336.588 118.207 336.03 116.501 335.446ZM126.852 338.627L135.511 306.908C136.914 307.291 138.327 307.652 139.748 307.992L132.097 339.97C130.338 339.549 128.59 339.102 126.852 338.627ZM137.388 341.148L144.023 308.944C145.447 309.237 146.878 309.509 148.318 309.758L142.701 342.155C140.921 341.847 139.149 341.511 137.388 341.148ZM148.052 342.997L152.645 310.439C154.088 310.642 155.538 310.824 156.996 310.983L153.427 343.669C151.627 343.472 149.835 343.248 148.052 342.997ZM158.812 344.172L161.359 311.39C162.815 311.504 164.278 311.594 165.748 311.663L164.224 344.508C162.413 344.424 160.609 344.312 158.812 344.172ZM169.63 344.675L170.138 311.798C170.873 311.81 171.61 311.815 172.348 311.815C173.086 311.815 173.823 311.81 174.558 311.798L175.066 344.675C174.162 344.689 173.256 344.696 172.348 344.696C171.44 344.696 170.534 344.689 169.63 344.675ZM180.472 344.508L178.948 311.663C180.418 311.594 181.881 311.504 183.337 311.39L185.883 344.172C184.087 344.312 182.283 344.424 180.472 344.508ZM191.269 343.669L187.7 310.983C189.157 310.824 190.608 310.642 192.05 310.439L196.644 342.997C194.861 343.248 193.069 343.472 191.269 343.669ZM201.995 342.155L196.378 309.758C197.818 309.509 199.249 309.237 200.673 308.944L207.308 341.148C205.546 341.511 203.775 341.847 201.995 342.155ZM212.599 339.97L204.948 307.992C206.369 307.652 207.782 307.291 209.185 306.908L217.844 338.627C216.106 339.102 214.358 339.549 212.599 339.97ZM223.041 337.12L213.383 305.69C214.78 305.261 216.167 304.81 217.545 304.338L228.195 335.446C226.489 336.03 224.77 336.588 223.041 337.12ZM233.287 333.612L221.659 302.857C223.025 302.341 224.38 301.803 225.726 301.245L238.321 331.618C236.656 332.308 234.978 332.973 233.287 333.612ZM243.291 329.464L229.742 299.505C231.072 298.903 232.391 298.281 233.699 297.639L248.187 327.156C246.569 327.95 244.937 328.72 243.291 329.464ZM253.01 324.694L237.599 295.648C238.89 294.964 240.169 294.259 241.436 293.535L257.753 322.081C256.187 322.976 254.606 323.847 253.01 324.694ZM262.41 319.321L245.204 291.302C246.45 290.537 247.683 289.753 248.903 288.95L266.98 316.415C265.473 317.407 263.949 318.375 262.41 319.321ZM271.456 313.367L252.526 286.482C253.722 285.64 254.904 284.78 256.071 283.902L275.833 310.181C274.391 311.266 272.932 312.328 271.456 313.367ZM280.11 306.859L259.536 281.211C260.677 280.296 261.803 279.363 262.914 278.413L284.28 303.405C282.909 304.578 281.518 305.729 280.11 306.859ZM288.34 299.823L266.204 275.51C267.286 274.525 268.352 273.524 269.403 272.506L292.287 296.116C290.991 297.372 289.675 298.608 288.34 299.823ZM296.116 292.287L272.506 269.403C273.524 268.352 274.525 267.286 275.51 266.204L299.823 288.34C298.608 289.675 297.372 290.991 296.116 292.287ZM303.405 284.28L278.413 262.914C279.363 261.803 280.296 260.677 281.211 259.536L306.859 280.11C305.729 281.518 304.578 282.909 303.405 284.28ZM310.181 275.833L283.902 256.071C284.78 254.904 285.64 253.722 286.482 252.526L313.367 271.456C312.328 272.932 311.266 274.391 310.181 275.833ZM316.415 266.98L288.95 248.903C289.753 247.683 290.537 246.45 291.302 245.204L319.321 262.41C318.375 263.949 317.407 265.473 316.415 266.98ZM322.081 257.753L293.535 241.436C294.259 240.169 294.964 238.89 295.648 237.599L324.694 253.01C323.847 254.606 322.976 256.187 322.081 257.753ZM327.156 248.187L297.639 233.699C298.281 232.391 298.903 231.072 299.505 229.742L329.464 243.291C328.72 244.937 327.95 246.569 327.156 248.187ZM331.618 238.321L301.245 225.726C301.803 224.38 302.341 223.025 302.857 221.659L333.612 233.287C332.973 234.978 332.308 236.656 331.618 238.321ZM335.446 228.195L304.338 217.545C304.81 216.167 305.261 214.78 305.69 213.383L337.12 223.041C336.588 224.77 336.03 226.488 335.446 228.195ZM338.627 217.844L306.908 209.185C307.291 207.782 307.652 206.369 307.992 204.948L339.97 212.599C339.549 214.358 339.102 216.106 338.627 217.844ZM341.148 207.308L308.944 200.673C309.237 199.249 309.509 197.818 309.758 196.378L342.155 201.995C341.847 203.775 341.511 205.546 341.148 207.308ZM342.997 196.644L310.439 192.05C310.642 190.608 310.824 189.157 310.983 187.7L343.669 191.269C343.472 193.069 343.248 194.861 342.997 196.644ZM344.172 185.883L311.39 183.337C311.504 181.881 311.594 180.418 311.663 178.948L344.508 180.472C344.424 182.283 344.312 184.087 344.172 185.883Z" fill="#505050"/>
</g>
<defs>
<filter id="filter0_d_955_2603" x="-3.91557" y="0" width="352.526" height="352.527" filterUnits="userSpaceOnUse" color-interpolation-filters="sRGB">
<feFlood flood-opacity="0" result="BackgroundImageFix"/>
<feColorMatrix in="SourceAlpha" type="matrix" values="0 0 0 0 0 0 0 0 0 0 0 0 0 0 0 0 0 0 127 0" result="hardAlpha"/>
<feOffset dy="3.91557"/>
<feGaussianBlur stdDeviation="1.95778"/>
<feComposite in2="hardAlpha" operator="out"/>
<feColorMatrix type="matrix" values="0 0 0 0 0 0 0 0 0 0 0 0 0 0 0 0 0 0 0.25 0"/>
<feBlend mode="normal" in2="BackgroundImageFix" result="effect1_dropShadow_955_2603"/>
<feBlend mode="normal" in="SourceGraphic" in2="effect1_dropShadow_955_2603" result="shape"/>
</filter>
</defs>
</svg>
