<svg width="371" height="371" viewBox="0 0 371 371" fill="none" xmlns="http://www.w3.org/2000/svg">
<g filter="url(#filter0_d_24_2932)">
<path d="M340.858 170.421C343.813 199.995 338.291 229.799 324.939 256.352L296.954 242.279C307.635 221.037 312.052 197.194 309.689 173.535L340.858 170.421Z" fill="#0B8AC0"/>
<path d="M294.46 73.9551C315.72 94.7242 330.631 121.114 337.453 150.041L306.965 157.231C301.507 134.089 289.578 112.977 272.57 96.362L294.46 73.9551Z" fill="#0B8AC0"/>
<path d="M196.792 29.8104C226.429 32.0459 254.818 42.6678 278.643 60.4354L259.917 85.5462C240.856 71.3321 218.145 62.8346 194.436 61.0462L196.792 29.8104Z" fill="#0B8AC0"/>
<path d="M93.8102 58.6591C117.973 41.3526 146.561 31.2783 176.235 29.6129L177.99 60.8882C154.251 62.2206 131.38 70.28 112.05 84.1252L93.8102 58.6591Z" fill="white"/>
<path d="M33.3021 147.067C40.6881 118.278 56.1129 92.1855 77.7748 71.8361L99.2221 94.6668C81.8926 110.946 69.5528 131.82 63.644 154.851L33.3021 147.067Z" fill="white"/>
<path d="M43.8214 253.784C30.9567 226.991 25.9807 197.092 29.4747 167.577L60.5821 171.259C57.7869 194.871 61.7676 218.791 72.0594 240.225L43.8214 253.784Z" fill="white"/>
<path d="M120.417 328.672C93.3413 316.414 70.3122 296.706 54.0195 271.849L80.2179 254.677C93.2521 274.563 111.675 290.329 133.336 300.135L120.417 328.672Z" fill="#0B8AC0"/>
<path d="M227.274 336.802C198.656 344.822 168.346 344.534 139.886 335.971L148.911 305.974C171.679 312.825 195.927 313.056 218.822 306.64L227.274 336.802Z" fill="#0B8AC0"/>
<path d="M314.369 274.291C297.613 298.838 274.218 318.111 246.917 329.859L234.536 301.085C256.377 291.687 275.093 276.269 288.498 256.631L314.369 274.291Z" fill="#0B8AC0"/>
</g>
<defs>
<filter id="filter0_d_24_2932" x="-6.38857" y="-5.16439" width="382.801" height="382.554" filterUnits="userSpaceOnUse" color-interpolation-filters="sRGB">
<feFlood flood-opacity="0" result="BackgroundImageFix"/>
<feColorMatrix in="SourceAlpha" type="matrix" values="0 0 0 0 0 0 0 0 0 0 0 0 0 0 0 0 0 0 127 0" result="hardAlpha"/>
<feOffset/>
<feGaussianBlur stdDeviation="17.3886"/>
<feComposite in2="hardAlpha" operator="out"/>
<feColorMatrix type="matrix" values="0 0 0 0 0.478431 0 0 0 0 0.0431373 0 0 0 0 0.752941 0 0 0 0.6 0"/>
<feBlend mode="normal" in2="BackgroundImageFix" result="effect1_dropShadow_24_2932"/>
<feBlend mode="normal" in="SourceGraphic" in2="effect1_dropShadow_24_2932" result="shape"/>
</filter>
</defs>
</svg>
