<svg width="371" height="371" viewBox="0 0 371 371" fill="none" xmlns="http://www.w3.org/2000/svg">
<g filter="url(#filter0_d_24_2906)">
<path d="M340.856 170.421C343.811 199.995 338.289 229.799 324.937 256.352L296.952 242.279C307.633 221.037 312.05 197.194 309.687 173.535L340.856 170.421Z" fill="#7A0BC0"/>
<path d="M294.458 73.9551C315.718 94.7242 330.629 121.114 337.451 150.041L306.963 157.231C301.505 134.089 289.576 112.977 272.568 96.362L294.458 73.9551Z" fill="#7A0BC0"/>
<path d="M196.79 29.8104C226.427 32.0459 254.816 42.6678 278.641 60.4354L259.915 85.5462C240.854 71.3321 218.143 62.8346 194.434 61.0462L196.79 29.8104Z" fill="#7A0BC0"/>
<path d="M93.8083 58.6591C117.971 41.3526 146.559 31.2783 176.233 29.6129L177.988 60.8882C154.249 62.2205 131.378 70.28 112.049 84.1252L93.8083 58.6591Z" fill="white"/>
<path d="M33.3002 147.067C40.6862 118.278 56.111 92.1855 77.7729 71.8361L99.2202 94.6668C81.8907 110.946 69.5508 131.82 63.642 154.851L33.3002 147.067Z" fill="white"/>
<path d="M43.8195 253.784C30.9547 226.991 25.9788 197.092 29.4728 167.577L60.5801 171.259C57.7849 194.871 61.7657 218.791 72.0575 240.225L43.8195 253.784Z" fill="white"/>
<path d="M120.415 328.672C93.3394 316.414 70.3103 296.706 54.0175 271.849L80.2159 254.677C93.2501 274.563 111.673 290.329 133.334 300.135L120.415 328.672Z" fill="white"/>
<path d="M227.272 336.802C198.654 344.822 168.344 344.534 139.884 335.971L148.909 305.974C171.677 312.825 195.925 313.056 218.82 306.64L227.272 336.802Z" fill="white"/>
<path d="M314.367 274.291C297.611 298.838 274.216 318.111 246.915 329.859L234.534 301.085C256.375 291.687 275.091 276.269 288.496 256.631L314.367 274.291Z" fill="white"/>
</g>
<defs>
<filter id="filter0_d_24_2906" x="-6.39052" y="-5.16439" width="382.801" height="382.554" filterUnits="userSpaceOnUse" color-interpolation-filters="sRGB">
<feFlood flood-opacity="0" result="BackgroundImageFix"/>
<feColorMatrix in="SourceAlpha" type="matrix" values="0 0 0 0 0 0 0 0 0 0 0 0 0 0 0 0 0 0 127 0" result="hardAlpha"/>
<feOffset/>
<feGaussianBlur stdDeviation="17.3886"/>
<feComposite in2="hardAlpha" operator="out"/>
<feColorMatrix type="matrix" values="0 0 0 0 0.478431 0 0 0 0 0.0431373 0 0 0 0 0.752941 0 0 0 0.6 0"/>
<feBlend mode="normal" in2="BackgroundImageFix" result="effect1_dropShadow_24_2906"/>
<feBlend mode="normal" in="SourceGraphic" in2="effect1_dropShadow_24_2906" result="shape"/>
</filter>
</defs>
</svg>
