<svg width="371" height="371" viewBox="0 0 371 371" fill="none" xmlns="http://www.w3.org/2000/svg">
<path d="M207.288 192.202L206.295 195.004L220.045 199.873L221.408 203.557L316.457 237.216L323.184 234.796L319.464 228.724L224.415 195.066L221.037 197.071L207.288 192.202Z" fill="white"/>
<path d="M207.623 191.254L137.929 166.574L136.25 171.315L205.945 195.995L206.295 195.004L207.288 192.202L207.623 191.254Z" fill="white"/>
<path d="M136.25 171.315L137.929 166.574L135.755 163.67L128.17 160.983L125.127 162.04L123.449 166.782L125.148 169.517L132.733 172.204L136.25 171.315Z" fill="white"/>
<path d="M137.929 166.574L207.623 191.254M137.929 166.574L136.25 171.315M137.929 166.574L135.755 163.67L128.17 160.983L125.127 162.04L123.449 166.782L125.148 169.517L132.733 172.204L136.25 171.315M207.623 191.254L205.945 195.995M207.623 191.254L207.288 192.202M205.945 195.995L136.25 171.315M205.945 195.995L206.295 195.004M207.288 192.202L221.037 197.071L224.415 195.066L319.464 228.724L323.184 234.796L316.457 237.216L221.408 203.557L220.045 199.873L206.295 195.004M207.288 192.202L206.295 195.004" stroke="white" stroke-width="1.00593"/>
</svg>
